<svg width="267" height="401" viewBox="0 0 267 401" fill="none" xmlns="http://www.w3.org/2000/svg">
<path opacity="0.1" fill-rule="evenodd" clip-rule="evenodd" d="M153.264 109.207C156.963 100.029 159 90.0024 159 79.5C159 35.5934 123.407 0 79.5 0C35.5934 0 0 35.5934 0 79.5C0 108.118 15.1208 133.203 37.8087 147.204C59.983 161.581 65.5975 180.124 44.4939 214.114C32.1634 233.072 25 255.699 25 280C25 346.826 79.1735 401 146 401C212.826 401 267 346.826 267 280C267 227.688 233.804 183.13 187.328 166.242C150.866 151.713 144.316 133.661 153.264 109.207Z" fill="white"/>
</svg>
