<svg width="568" height="626" viewBox="0 0 568 626" fill="none" xmlns="http://www.w3.org/2000/svg">
<path opacity="0.1" fill-rule="evenodd" clip-rule="evenodd" d="M453.405 259.197C487.503 253.906 513.602 224.42 513.602 188.839C513.602 149.514 481.723 117.635 442.398 117.635C408.208 117.635 379.646 141.733 372.77 173.871C366.839 198.208 351.445 217.833 299.022 210.308C281.857 204.834 263.566 201.881 244.586 201.881C145.716 201.881 65.5664 282.03 65.5664 380.9C65.5664 479.77 145.716 559.919 244.586 559.919C343.455 559.919 423.605 479.77 423.605 380.9C423.605 358.388 419.45 336.846 411.864 317.001C411.892 275.245 430.956 263.225 453.405 259.197Z" fill="white"/>
</svg>
