<svg width="341" height="110" viewBox="0 0 341 110" fill="none" xmlns="http://www.w3.org/2000/svg">
<path d="M115.072 30C115.072 13.4315 128.504 0 145.072 0H195.072C211.641 0 225.072 13.4315 225.072 30V80C225.072 96.5685 211.641 110 195.072 110H145.072C128.504 110 115.072 96.5685 115.072 80V30Z" fill="#7632E2"/>
<path d="M230.072 30C230.072 13.4315 243.504 0 260.072 0H310.072C326.641 0 340.072 13.4315 340.072 30V80C340.072 96.5685 326.641 110 310.072 110H260.072C243.504 110 230.072 96.5685 230.072 80V30Z" fill="#DDCEF0"/>
<path d="M290.44 27L263 67.8V71.48H293.56V83H297.88V71.48H307.8V67.64H297.88V27H290.44ZM292.6 31.16H293.56V67.64H267.8L292.6 31.16Z" fill="#6801E6"/>
<path d="M60.44 27L33 67.8V71.48H63.56V83H67.88V71.48H77.8V67.64H67.88V27H60.44ZM62.6 31.16H63.56V67.64H37.8L62.6 31.16Z" fill="#D7D1E8"/>
<path d="M150.23 48.7599V61.2399C150.23 76.2799 157.43 84.1199 170.07 84.1199C182.71 84.1199 189.91 76.2799 189.91 61.2399V48.7599C189.91 33.7199 182.71 25.8799 170.07 25.8799C157.43 25.8799 150.23 33.7199 150.23 48.7599ZM154.55 48.4399C154.55 36.7599 159.67 29.7199 170.07 29.7199C180.47 29.7199 185.59 36.7599 185.59 48.4399V61.5599C185.59 73.2399 180.47 80.2799 170.07 80.2799C159.67 80.2799 154.55 73.2399 154.55 61.5599V48.4399Z" fill="#DDCEF0"/>
</svg>
