<svg width="1037" height="364" viewBox="0 0 1037 364" fill="none" xmlns="http://www.w3.org/2000/svg">
<rect x="349" y="21" width="339" height="339" rx="45" fill="#8027EA"/>
<rect x="698" y="21" width="339" height="339" rx="45" fill="#DDCEF0"/>
<path d="M197.788 94L101.748 236.8V249.68H208.708V290H223.828V249.68H258.548V236.24H223.828V94H197.788ZM205.348 108.56H208.708V236.24H118.548L205.348 108.56Z" fill="#DDCEF0"/>
<path d="M885.788 94L789.748 236.8V249.68H896.708V290H911.828V249.68H946.548V236.24H911.828V94H885.788ZM893.348 108.56H896.708V236.24H806.548L893.348 108.56Z" fill="#6801E6"/>
<path d="M453.557 170.16V213.84C453.557 266.48 478.757 293.92 522.997 293.92C567.237 293.92 592.437 266.48 592.437 213.84V170.16C592.437 117.52 567.237 90.08 522.997 90.08C478.757 90.08 453.557 117.52 453.557 170.16ZM468.677 169.04C468.677 128.16 486.597 103.52 522.997 103.52C559.397 103.52 577.317 128.16 577.317 169.04V214.96C577.317 255.84 559.397 280.48 522.997 280.48C486.597 280.48 468.677 255.84 468.677 214.96V169.04Z" fill="#DDCEF0"/>
</svg>
