<svg width="36" height="24" viewBox="0 0 36 24" fill="none" xmlns="http://www.w3.org/2000/svg">
<path fill-rule="evenodd" clip-rule="evenodd" d="M18.4822 23.7391C9.03968 23.7391 0.259277 18.9313 0.259277 12C0.259277 5.06869 9.03968 0.260864 18.4822 0.260864C24.3068 0.260864 29.8795 2.24372 33.2948 5.29536C30.0973 2.62823 25.1474 0.906029 19.9843 0.906029C11.2162 0.906029 3.063 5.46944 3.063 11.9997C3.063 18.53 11.2162 23.0934 19.9843 23.0934C25.1525 23.0934 30.1072 21.3677 33.3044 18.696C29.8899 21.7525 24.3123 23.7391 18.4822 23.7391Z" fill="#b3b3b3"/>
<path fill-rule="evenodd" clip-rule="evenodd" d="M5.72924 3.36401C9.13966 1.27419 13.7315 0.0651855 18.4826 0.0651855C24.345 0.0651855 29.9667 2.05965 33.424 5.14896L33.1712 5.44601C30.0138 2.81222 25.1097 1.10165 19.9847 1.10165C15.6313 1.10165 11.4375 2.23509 8.33836 4.17028C5.23804 6.10619 3.25765 8.82579 3.25765 11.9997C3.25765 15.1736 5.23804 17.8932 8.33836 19.8291C11.4375 21.7643 15.6313 22.8977 19.9847 22.8977C25.1148 22.8977 30.0237 21.1837 33.1808 18.5454L33.4338 18.8422C29.977 21.9365 24.3505 23.9347 18.4826 23.9347C13.7315 23.9347 9.13966 22.7257 5.72924 20.6359C2.32026 18.547 0.0654297 15.5584 0.0654297 12C0.0654297 8.4415 2.32026 5.45295 5.72924 3.36401ZM5.93115 3.69832C2.58928 5.74612 0.453919 8.62713 0.453919 12C0.453919 15.3728 2.58928 18.2538 5.93115 20.3016C9.27154 22.3485 13.7912 23.5434 18.4826 23.5434C20.3668 23.5434 22.2232 23.3345 23.9864 22.9485C22.6849 23.171 21.3418 23.289 19.9847 23.289C15.5701 23.289 11.3031 22.1408 8.13368 20.1617C4.96537 18.1833 2.86916 15.3561 2.86916 11.9997C2.86916 8.64331 4.96537 5.81606 8.13368 3.8377C11.3031 1.85862 15.5701 0.71035 19.9847 0.71035C21.3377 0.71035 22.6767 0.827671 23.9745 1.0488C22.2148 0.664539 20.3626 0.45649 18.4826 0.45649C13.7912 0.45649 9.27154 1.6514 5.93115 3.69832Z" fill="#b3b3b3"/>
<path fill-rule="evenodd" clip-rule="evenodd" d="M19.5362 19.9875C13.0755 19.9875 7.06787 16.6576 7.06787 12C7.06787 7.34242 13.0755 4.01257 19.5362 4.01257C23.3632 4.01257 27.0313 5.25176 29.3858 7.18819C27.1952 5.49564 23.9436 4.41585 20.5579 4.41585C14.5587 4.41585 8.98017 7.68515 8.98017 11.9883C8.98017 16.2915 14.5587 19.5608 20.5579 19.5608C24.1762 19.5608 27.6415 18.3275 29.8222 16.431C27.5008 18.5843 23.6085 19.9875 19.5362 19.9875Z" fill="#b3b3b3"/>
<path fill-rule="evenodd" clip-rule="evenodd" d="M10.7782 6.09261C13.1224 4.65673 16.2755 3.81702 19.5361 3.81702C23.3997 3.81702 27.1136 5.06692 29.5087 7.03675L29.2676 7.34353C27.1151 5.68054 23.9065 4.6116 20.5578 4.6116C17.5906 4.6116 14.7327 5.42066 12.6224 6.75423C10.5094 8.08959 9.17432 9.9295 9.17432 11.9884C9.17432 14.0474 10.5094 15.8873 12.6224 17.2226C14.7327 18.5562 17.5906 19.3653 20.5578 19.3653C24.1376 19.3653 27.5554 18.1439 29.6952 16.283L29.9537 16.575C27.5891 18.7684 23.6462 20.1832 19.5361 20.1832C16.2755 20.1832 13.1224 19.3435 10.7782 17.9076C8.4363 16.4731 6.87354 14.4227 6.87354 12.0001C6.87354 9.57751 8.4363 7.52716 10.7782 6.09261ZM10.9801 6.42694C8.70303 7.82173 7.26202 9.76508 7.26202 12.0001C7.26202 14.2351 8.70303 16.1785 10.9801 17.5733C13.2549 18.9667 16.336 19.7919 19.5361 19.7919C19.9117 19.7919 20.2858 19.7798 20.657 19.7563C20.6239 19.7565 20.5909 19.7566 20.5578 19.7566C17.5258 19.7566 14.5948 18.931 12.416 17.5541C10.2401 16.179 8.78583 14.2327 8.78583 11.9884C8.78583 9.74416 10.2401 7.79783 12.416 6.42276C14.5223 5.09165 17.3317 4.27581 20.2557 4.22303C20.0167 4.21325 19.7767 4.20832 19.5361 4.20832C16.336 4.20832 13.2549 5.03353 10.9801 6.42694Z" fill="#b3b3b3"/>
<path d="M24.9303 3.07958C24.9502 2.47606 24.9703 1.87211 25.0102 1.10767C25.0502 1.87414 25.0703 2.47925 25.0903 3.08435C25.0958 3.25905 25.1011 3.43016 25.1062 3.59771C25.2133 7.10636 25.2735 9.07616 26.5938 10.4029C27.918 11.7367 29.8346 11.7954 33.2569 11.9002C33.4535 11.9062 33.6547 11.9124 33.8614 11.919C34.462 11.9391 35.0629 11.9593 35.8238 11.9996H2.42358C1.74672 11.9924 1.25098 11.9856 1.02002 11.9795C2.54194 11.9391 15.5583 11.8584 16.1591 11.8584C19.9639 11.7979 22.0265 11.7173 23.4483 10.4029C24.7469 9.07874 24.807 7.10949 24.9141 3.60572C24.9192 3.43558 24.9246 3.26185 24.9301 3.08435L24.9303 3.07958Z" fill="#b3b3b3"/>
<path d="M24.9303 20.9197C24.9502 21.5232 24.9703 22.1272 25.0102 22.8916C25.0502 22.1251 25.0703 21.52 25.0903 20.9149C25.0958 20.7402 25.1011 20.5691 25.1062 20.4015C25.2133 16.8929 25.2735 14.9231 26.5938 13.5964C27.918 12.2626 29.8346 12.2039 33.2569 12.0991C33.4535 12.0931 33.6547 12.0869 33.8614 12.0803C34.462 12.0601 35.0629 12.04 35.8238 11.9996H2.42358C1.74672 12.0069 1.25098 12.0137 1.02002 12.0198C2.54194 12.0601 15.5583 12.1408 16.1591 12.1408C19.9639 12.2013 22.0265 12.282 23.4483 13.5964C24.7469 14.9205 24.807 16.8898 24.9141 20.3936C24.9192 20.5637 24.9246 20.7374 24.9301 20.9149L24.9303 20.9197Z" fill="#b3b3b3"/>
<path fill-rule="evenodd" clip-rule="evenodd" d="M24.7358 3.07297C24.7558 2.46941 24.7759 1.8638 24.816 1.09729L25.204 1.09731C25.2441 1.86584 25.2642 2.4726 25.2842 3.07774V3.07811C25.2897 3.25289 25.2949 3.42405 25.3001 3.59163C25.3538 5.35138 25.3956 6.70454 25.5861 7.78422C25.7753 8.8571 26.1082 9.63869 26.7308 10.2643C27.356 10.8941 28.125 11.2298 29.1729 11.4198C30.2277 11.6112 31.546 11.652 33.2626 11.7046L33.2719 11.7049C33.4654 11.7108 33.6638 11.7169 33.8674 11.7233H33.8676L33.8684 11.7234C34.469 11.7435 35.0712 11.7637 35.8339 11.8042V12.1949C35.0712 12.2354 34.4687 12.2556 33.8684 12.2758L33.8676 12.2758H33.8674C33.6648 12.2822 33.4672 12.2883 33.2745 12.2942L33.2626 12.2946C31.546 12.3471 30.2277 12.388 29.1729 12.5793C28.125 12.7694 27.3563 13.1048 26.7308 13.7346C26.1085 14.3602 25.7753 15.142 25.5861 16.2149C25.3956 17.2946 25.3538 18.6477 25.3001 20.4075C25.2949 20.5751 25.2897 20.7462 25.2842 20.921V20.9214C25.2642 21.5265 25.2441 22.1333 25.204 22.9018L24.816 22.9018C24.7759 22.1353 24.7558 21.5297 24.7358 20.9262L24.7358 20.9245L24.7357 20.921L24.7357 20.9203C24.7302 20.743 24.7248 20.5694 24.7196 20.3995C24.666 18.6423 24.6242 17.2902 24.4365 16.2113C24.2501 15.1409 23.9232 14.3608 23.3131 13.7372C22.6401 13.1165 21.8102 12.7794 20.6658 12.5914C19.5139 12.4022 18.0628 12.3667 16.1573 12.3364C15.5359 12.3363 2.53816 12.2557 1.01465 12.2153V11.7838C2.53821 11.7434 15.5368 11.6629 16.1573 11.6627C18.0628 11.6324 19.5139 11.5969 20.6658 11.4077C21.8102 11.2197 22.6401 10.8826 23.3131 10.2619C23.9232 9.6383 24.2501 8.8582 24.4365 7.7878C24.6242 6.70892 24.666 5.35686 24.7196 3.59961C24.7248 3.42971 24.7302 3.2561 24.7357 3.07879L24.7357 3.07811L24.7358 3.07467L24.7358 3.07297ZM25.0103 6.06906C24.9693 6.73276 24.9114 7.32494 24.8191 7.85536C24.6243 8.9746 24.2727 9.84034 23.5862 10.5403L23.5828 10.5437L23.5793 10.547C22.8312 11.2386 21.9199 11.5981 20.7283 11.7939C20.7077 11.7973 20.687 11.8006 20.6662 11.8039H29.0985C28.004 11.6047 27.154 11.244 26.4563 10.5413C25.7587 9.84021 25.4013 8.97355 25.2036 7.85267C25.1101 7.3229 25.0516 6.73161 25.0103 6.06906ZM29.0985 12.1952H20.6662C20.687 12.1985 20.7077 12.2018 20.7283 12.2052C21.9199 12.401 22.8312 12.7606 23.5793 13.4521L23.5828 13.4554L23.5862 13.4588C24.2727 14.1588 24.6243 15.0245 24.8191 16.1438C24.9114 16.6742 24.9693 17.2664 25.0103 17.9301C25.0516 17.2675 25.1101 16.6762 25.2036 16.1464C25.4013 15.0256 25.7587 14.1589 26.4563 13.4578C27.154 12.7551 28.004 12.3944 29.0985 12.1952Z" fill="#b3b3b3"/>
</svg>
