<svg width="28" height="28" viewBox="0 0 28 28" fill="none" xmlns="http://www.w3.org/2000/svg">
<g opacity="0.5">
<path fill-rule="evenodd" clip-rule="evenodd" d="M25.6663 14C25.6663 20.4433 20.443 25.6666 13.9997 25.6666C7.55635 25.6666 2.33301 20.4433 2.33301 14C2.33301 7.55666 7.55635 2.33331 13.9997 2.33331C20.443 2.33331 25.6663 7.55666 25.6663 14ZM12.2552 14.0245V11.984C12.2552 8.60529 13.9014 7.12246 16.7096 7.12246C18.0317 7.12246 18.7407 7.21825 19.0847 7.26474L19.1024 7.26712V9.94346H17.1867C15.9944 9.94346 15.5779 11.074 15.5779 12.348V14.0245H19.0721L18.5984 17.0916H15.5791V25.5476C15.0611 25.6176 14.5361 25.6666 13.9994 25.6666C13.4056 25.6666 12.8257 25.6083 12.2552 25.522V17.0916H9.3689V14.0245H12.2552Z" fill="white"/>
</g>
</svg>
