<svg width="28" height="28" viewBox="0 0 28 28" fill="none" xmlns="http://www.w3.org/2000/svg">
<g opacity="0.5">
<path fill-rule="evenodd" clip-rule="evenodd" d="M25.6666 14.0002C25.6666 20.4435 20.4432 25.6668 13.9999 25.6668C7.5566 25.6668 2.33325 20.4435 2.33325 14.0002C2.33325 7.55684 7.5566 2.3335 13.9999 2.3335C20.4432 2.3335 25.6666 7.55684 25.6666 14.0002ZM12.2555 14.0246V11.9841C12.2555 8.60547 13.9016 7.12264 16.7098 7.12264C18.0319 7.12264 18.7409 7.21844 19.085 7.26492L19.1026 7.26731V9.94364H17.187C15.9946 9.94364 15.5781 11.0741 15.5781 12.3481V14.0246H19.0723L18.5986 17.0918H15.5793V25.5478C15.0613 25.6178 14.5363 25.6668 13.9996 25.6668C13.4058 25.6668 12.826 25.6085 12.2555 25.5221V17.0918H9.36914V14.0246H12.2555Z" fill="#6801E6"/>
</g>
</svg>
