<svg width="28" height="28" viewBox="0 0 28 28" fill="none" xmlns="http://www.w3.org/2000/svg">
<g opacity="0.5">
<path fill-rule="evenodd" clip-rule="evenodd" d="M19.1851 25.6668H8.81473C5.23566 25.6668 2.33325 22.7644 2.33325 19.1853V8.81498C2.33325 5.2359 5.23566 2.3335 8.81473 2.3335H19.1851C22.7642 2.3335 25.6666 5.2359 25.6666 8.81498V19.1853C25.6666 22.7644 22.7642 25.6668 19.1851 25.6668ZM13.9999 8.16683C10.7788 8.16683 8.16658 10.779 8.16658 14.0002C8.16658 17.2213 10.7788 19.8335 13.9999 19.8335C17.2211 19.8335 19.8333 17.2213 19.8333 14.0002C19.8333 10.779 17.2211 8.16683 13.9999 8.16683ZM13.9999 17.5002C12.0668 17.5002 10.4999 15.9333 10.4999 14.0002C10.4999 12.067 12.0668 10.5002 13.9999 10.5002C15.9331 10.5002 17.4999 12.067 17.4999 14.0002C17.4999 15.9333 15.9331 17.5002 13.9999 17.5002ZM20.9999 8.16683C20.9999 8.81116 20.4776 9.3335 19.8333 9.3335C19.1889 9.3335 18.6666 8.81116 18.6666 8.16683C18.6666 7.5225 19.1889 7.00016 19.8333 7.00016C20.4776 7.00016 20.9999 7.5225 20.9999 8.16683Z" fill="#6801E6"/>
</g>
</svg>
