<svg width="28" height="28" viewBox="0 0 28 28" fill="none" xmlns="http://www.w3.org/2000/svg">
<path fill-rule="evenodd" clip-rule="evenodd" d="M19.1849 25.6666H8.81449C5.23542 25.6666 2.33301 22.7642 2.33301 19.1852V8.8148C2.33301 5.23572 5.23542 2.33331 8.81449 2.33331H19.1849C22.7639 2.33331 25.6663 5.23572 25.6663 8.8148V19.1852C25.6663 22.7642 22.7639 25.6666 19.1849 25.6666ZM13.9997 8.16665C10.7785 8.16665 8.16634 10.7788 8.16634 14C8.16634 17.2211 10.7785 19.8333 13.9997 19.8333C17.2208 19.8333 19.833 17.2211 19.833 14C19.833 10.7788 17.2208 8.16665 13.9997 8.16665ZM13.9997 17.5C12.0665 17.5 10.4997 15.9331 10.4997 14C10.4997 12.0668 12.0665 10.5 13.9997 10.5C15.9328 10.5 17.4997 12.0668 17.4997 14C17.4997 15.9331 15.9328 17.5 13.9997 17.5ZM20.9997 8.16665C20.9997 8.81098 20.4773 9.33331 19.833 9.33331C19.1887 9.33331 18.6663 8.81098 18.6663 8.16665C18.6663 7.52231 19.1887 6.99998 19.833 6.99998C20.4773 6.99998 20.9997 7.52231 20.9997 8.16665Z" fill="white"/>
</svg>
