<svg width="33" height="33" viewBox="0 0 33 33" fill="none" xmlns="http://www.w3.org/2000/svg">
<path d="M4.125 4.125H28.875C29.2397 4.125 29.5894 4.26987 29.8473 4.52773C30.1051 4.78559 30.25 5.13533 30.25 5.5V27.5C30.25 27.8647 30.1051 28.2144 29.8473 28.4723C29.5894 28.7301 29.2397 28.875 28.875 28.875H4.125C3.76033 28.875 3.41059 28.7301 3.15273 28.4723C2.89487 28.2144 2.75 27.8647 2.75 27.5V5.5C2.75 5.13533 2.89487 4.78559 3.15273 4.52773C3.41059 4.26987 3.76033 4.125 4.125 4.125ZM27.5 9.95225L16.599 19.7148L5.5 9.922V26.125H27.5V9.95225ZM6.20263 6.875L16.5839 16.0352L26.8153 6.875H6.20263Z" fill="#6801E6"/>
</svg>
