<svg width="57" height="97" viewBox="0 0 57 97" fill="none" xmlns="http://www.w3.org/2000/svg">
<g clip-path="url(#clip0)">
<path d="M57 96.9316H54.2857V92.2632H57V93.0754H55.2864V94.0983H56.9124V94.9105H55.2864V96.0946H57V96.9316ZM49.3637 94.5943C49.3349 95.0086 49.4401 95.4212 49.6639 95.7722C49.77 95.9046 49.9066 96.0098 50.0622 96.0788C50.2179 96.1479 50.388 96.1788 50.5583 96.169C51.3588 96.169 51.7528 95.642 51.7528 94.5943C51.7528 93.5465 51.3588 93.0134 50.5645 93.0134C50.3934 93.0036 50.2223 93.0345 50.0657 93.1035C49.909 93.1725 49.7713 93.2777 49.6639 93.4102C49.44 93.7634 49.3349 94.178 49.3637 94.5943ZM52.8035 94.5943C52.8474 95.2394 52.6391 95.8766 52.2219 96.3736C51.7637 96.778 51.1717 97.0014 50.5583 97.0014C49.9448 97.0014 49.3528 96.778 48.8947 96.3736C48.4799 95.8731 48.274 95.2343 48.3193 94.5881C48.2715 93.9425 48.4802 93.3039 48.9009 92.8088C49.1172 92.5933 49.3777 92.4264 49.6647 92.3194C49.9517 92.2124 50.2586 92.1679 50.5645 92.1888C50.8702 92.1699 51.1765 92.2154 51.4633 92.3222C51.75 92.4291 52.0107 92.5949 52.2281 92.8088C52.6407 93.3105 52.8462 93.9484 52.8035 94.5943ZM46.8246 96.9316H45.8302V94.9167H43.9539V96.9316H42.9658V92.2632H43.9664V94.1231H45.8427V92.2632H46.8371L46.8246 96.9316ZM39.2446 96.0946H39.5823C39.8392 96.1176 40.0969 96.0613 40.3203 95.9334C40.3987 95.88 40.4618 95.8074 40.5034 95.7227C40.5451 95.6379 40.5638 95.5439 40.5579 95.4498C40.565 95.3582 40.5466 95.2664 40.5047 95.1844C40.4628 95.1024 40.399 95.0334 40.3203 94.9849C40.0639 94.8688 39.7819 94.8197 39.501 94.8423H39.2446V96.0946ZM41.5648 95.4746C41.5648 96.448 40.9394 96.9316 39.6198 96.9316H38.2502V92.2632H39.2446V94.0549H39.6386C40.1418 94.0246 40.6415 94.155 41.0645 94.4269C41.2277 94.5479 41.3586 94.7066 41.4458 94.8892C41.533 95.0718 41.5739 95.2728 41.5648 95.4746ZM36.5616 96.9316H35.5546V93.0878H34.3976L34.3476 93.5155C34.2163 94.6005 34.0974 95.3754 33.9974 95.8094C33.9418 96.1562 33.7853 96.4794 33.5471 96.7394C33.3272 96.922 33.0455 97.0151 32.7591 96.9998C32.5974 97.0034 32.4364 96.9782 32.2837 96.9254V96.0946C32.3956 96.1375 32.5141 96.1605 32.634 96.1628C32.6887 96.1631 32.7425 96.1489 32.7897 96.1216C32.837 96.0944 32.8761 96.0551 32.9029 96.0078C32.9976 95.8274 33.061 95.6325 33.0905 95.4312C33.1468 95.1523 33.2281 94.6935 33.3282 94.0549C33.4282 93.4164 33.5095 92.815 33.5721 92.2446H36.549L36.5616 96.9316ZM30.076 94.9911C29.7633 93.9805 29.582 93.4102 29.5444 93.28C29.5069 93.1498 29.4756 93.0444 29.4569 92.97C29.3881 93.2428 29.1817 93.9123 28.8315 94.9911H30.076ZM30.6577 96.9316L30.3137 95.8218H28.5876L28.2436 96.9316H27.1679L28.8315 92.2446H30.051L31.7209 96.9316H30.6577ZM26.6738 96.9316H25.523L23.8157 94.5633V96.9316H22.815V92.2632H23.8157V94.5261L25.5043 92.2632H26.5675L24.8476 94.5075L26.6738 96.9316ZM21.1389 96.9316H20.1382V92.2632H21.1389V96.9316ZM17.3302 96.0946H17.5928C17.8435 96.1137 18.0941 96.0576 18.312 95.9334C18.3893 95.8793 18.4511 95.8064 18.4917 95.7217C18.5322 95.637 18.55 95.5434 18.5434 95.4498C18.5504 95.3593 18.534 95.2685 18.4957 95.1861C18.4574 95.1036 18.3985 95.0322 18.3246 94.9787C18.0822 94.8678 17.8151 94.8208 17.549 94.8423H17.3302V96.0946ZM19.5566 95.4746C19.5711 95.6821 19.5342 95.89 19.4492 96.0802C19.3642 96.2703 19.2336 96.437 19.0688 96.5658C18.637 96.8383 18.1285 96.9665 17.6178 96.9316H16.3295V92.2632H17.3302V94.0549H17.6554C18.1507 94.0251 18.6423 94.1557 19.0563 94.4269C19.2195 94.5479 19.3504 94.7066 19.4376 94.8892C19.5248 95.0718 19.5656 95.2728 19.5566 95.4746ZM14.8035 93.3544C14.8068 93.4943 14.7795 93.6333 14.7233 93.7617C14.6672 93.8902 14.5836 94.005 14.4783 94.0983C14.2322 94.3101 13.9267 94.4421 13.6027 94.4765C13.9626 94.492 14.3093 94.6152 14.5971 94.8299C14.71 94.921 14.8003 95.0365 14.861 95.1677C14.9217 95.2988 14.9513 95.442 14.9473 95.5862C14.9534 95.7859 14.9084 95.9838 14.8165 96.1616C14.7247 96.3393 14.589 96.4912 14.422 96.603C13.9866 96.8788 13.4744 97.0111 12.9585 96.9812C12.3928 97.0001 11.8286 96.9139 11.2949 96.727V95.8962C11.5229 95.9981 11.7622 96.073 12.0079 96.1194C12.2588 96.172 12.5145 96.1991 12.7709 96.2C13.5589 96.2 13.9592 95.9706 13.9592 95.5118C13.9592 95.3072 13.8278 95.1523 13.5777 95.0407C13.2151 94.9116 12.8305 94.8547 12.4457 94.8733H12.0016V94.1045H12.4019C12.7704 94.1228 13.1391 94.0745 13.4901 93.9619C13.5896 93.9311 13.6763 93.8691 13.7372 93.7852C13.7981 93.7014 13.8299 93.6002 13.8278 93.4969C13.83 93.4199 13.8115 93.3437 13.7741 93.2762C13.7367 93.2086 13.6819 93.1522 13.6152 93.1126C13.4242 93.0082 13.2076 92.9588 12.9898 92.97C12.5456 92.9789 12.1126 93.1098 11.739 93.3482L11.2574 92.7096C11.5171 92.5336 11.8046 92.4016 12.108 92.319C12.4366 92.2339 12.7752 92.1922 13.1149 92.195C13.5556 92.17 13.9931 92.2827 14.3657 92.5174C14.5038 92.6091 14.6163 92.7339 14.6929 92.8802C14.7694 93.0265 14.8074 93.1896 14.8035 93.3544ZM10.4256 92.2632L8.9684 95.5676C8.84349 95.889 8.67061 96.1899 8.45556 96.4604C8.3002 96.6369 8.10528 96.7749 7.88644 96.8634C7.63166 96.9621 7.35932 97.0085 7.08591 96.9998C6.83223 97.0028 6.57944 96.9694 6.33542 96.9006V96.0512C6.56074 96.1367 6.801 96.1767 7.04213 96.169C7.19587 96.1762 7.34766 96.1326 7.47367 96.045C7.60575 95.9323 7.70146 95.7835 7.74885 95.6172L6.11652 92.2632H7.19223L8.3555 94.8671H8.38677L8.44305 94.7059L9.4187 92.2632H10.4256ZM1.99506 96.9316L0.856814 93.2676C0.894338 94.0177 0.919355 94.5075 0.919355 94.7617V96.9316H0V92.2632H1.3634L2.50165 95.8342L3.68367 92.2632H5.03456V96.9316H4.1027V94.7245C4.1027 94.6191 4.1027 94.4951 4.1027 94.3587C4.1027 94.2223 4.1027 93.8627 4.14648 93.2738L2.93318 96.9316H1.99506ZM27.6995 88.035H25.0165V83.3605H27.7307V84.1727H25.9858V85.2018H27.5806V86.014H25.9858V87.2167H27.6995V88.035ZM20.0632 85.6916C20.0335 86.1059 20.1387 86.5188 20.3634 86.8695C20.4684 87.0031 20.6048 87.1091 20.7607 87.1783C20.9166 87.2475 21.0873 87.2777 21.2577 87.2663C22.0583 87.2663 22.4523 86.7393 22.4523 85.6916C22.4523 84.6438 22.0583 84.1168 21.264 84.1168C21.0927 84.106 20.9213 84.1365 20.7645 84.2056C20.6077 84.2746 20.4701 84.3804 20.3634 84.5136C20.1408 84.8629 20.0357 85.2731 20.0632 85.6854V85.6916ZM23.503 85.6916C23.5465 86.3386 23.3384 86.9775 22.9213 87.4771C22.7044 87.6916 22.4438 87.8578 22.1569 87.9647C21.8701 88.0716 21.5635 88.1167 21.2577 88.097C20.9519 88.1167 20.6454 88.0716 20.3586 87.9647C20.0717 87.8578 19.8111 87.6916 19.5941 87.4771C19.1784 86.9747 18.9725 86.3336 19.0188 85.6854C18.9709 85.0398 19.1797 84.4012 19.6004 83.9061C19.8176 83.6919 20.0782 83.5258 20.365 83.419C20.6518 83.3121 20.9582 83.2668 21.264 83.2861C21.5699 83.2656 21.8766 83.3103 22.1636 83.4173C22.4506 83.5242 22.7111 83.6909 22.9276 83.9061C23.3409 84.4049 23.5466 85.0413 23.503 85.6854V85.6916ZM15.2788 85.9954V87.2353H15.9355C16.1565 87.2556 16.3778 87.1986 16.5609 87.0741C16.6291 87.0155 16.6822 86.9416 16.7159 86.8586C16.7497 86.7756 16.763 86.6858 16.7548 86.5967C16.7548 86.2123 16.4796 86.014 15.9167 86.014L15.2788 85.9954ZM15.2788 85.2142H15.8604C16.0643 85.2298 16.2685 85.1867 16.4483 85.0902C16.5117 85.042 16.5617 84.9786 16.5934 84.9059C16.6252 84.8332 16.6377 84.7536 16.6297 84.6748C16.6365 84.5992 16.622 84.5233 16.5878 84.4554C16.5535 84.3875 16.5009 84.3304 16.4358 84.2904C16.2411 84.1984 16.0256 84.1578 15.8104 84.1727H15.2851L15.2788 85.2142ZM14.2844 83.3543H15.7479C16.2507 83.317 16.7543 83.4156 17.2051 83.6395C17.3545 83.7356 17.4751 83.8698 17.5543 84.0279C17.6335 84.186 17.6684 84.3623 17.6554 84.5384C17.6667 84.7825 17.5988 85.0237 17.4615 85.2266C17.3986 85.3123 17.3193 85.385 17.2281 85.4403C17.1369 85.4956 17.0355 85.5325 16.9299 85.549C17.1757 85.597 17.3969 85.7285 17.5553 85.921C17.7189 86.1935 17.7816 86.5141 17.7325 86.8276C17.6834 87.141 17.5256 87.4277 17.2864 87.6383C16.9205 87.8909 16.481 88.0172 16.0355 87.9978H14.2844V83.3543ZM12.8835 84.8112C12.8979 85.0266 12.8626 85.2424 12.7802 85.4422C12.6979 85.642 12.5706 85.8206 12.4082 85.9644C12.0211 86.2547 11.5417 86.3977 11.0573 86.3673H10.632V88.035H9.63134V83.3605H11.1323C11.5976 83.3292 12.0594 83.4585 12.4394 83.7263C12.5908 83.8625 12.7093 84.0308 12.7861 84.2186C12.863 84.4064 12.8963 84.6089 12.8835 84.8112ZM10.632 85.5552H10.9635C11.2065 85.5724 11.4485 85.5092 11.6514 85.3754C11.7926 85.2404 11.8754 85.0564 11.8824 84.8621C11.8894 84.6678 11.8201 84.4784 11.6889 84.3338C11.5094 84.2014 11.2859 84.1416 11.0635 84.1664H10.632V85.5552ZM8.13035 88.035H5.42857V83.3605H8.13035V84.1727H6.42298V85.2018H8.01777V86.014H6.42298V87.2167H8.13035V88.035ZM3.75247 88.035H2.73305V84.185H1.00066V88.035H0V83.3605H3.75247V88.035Z" fill="white"/>
<path fill-rule="evenodd" clip-rule="evenodd" d="M0 0L56.556 38.7417L0 77.4958V0Z" fill="#C023C0"/>
<mask id="mask0" mask-type="alpha" maskUnits="userSpaceOnUse" x="0" y="0" width="57" height="39">
<path fill-rule="evenodd" clip-rule="evenodd" d="M0 -0.000167847L56.556 38.7354H21.9519L0 -0.000167847Z" fill="#E24EA9"/>
</mask>
<g mask="url(#mask0)">
<path d="M56.556 0H0V38.7417H56.556V0Z" fill="url(#paint0_linear)"/>
</g>
<path fill-rule="evenodd" clip-rule="evenodd" d="M0 77.4772L56.556 38.7417H21.9519L0 77.4772Z" fill="#E24EA9"/>
</g>
<defs>
<linearGradient id="paint0_linear" x1="0" y1="19.3678" x2="56.556" y2="19.3678" gradientUnits="userSpaceOnUse">
<stop stop-color="#6400E7"/>
<stop offset="1" stop-color="#AE14C2"/>
</linearGradient>
<clipPath id="clip0">
<rect width="57" height="97" fill="white"/>
</clipPath>
</defs>
</svg>
