<svg width="24" height="24" viewBox="0 0 24 24" fill="none" xmlns="http://www.w3.org/2000/svg">
<path fill-rule="evenodd" clip-rule="evenodd" d="M23.6654 12C23.6654 18.4434 18.442 23.6667 11.9987 23.6667C5.55538 23.6667 0.332031 18.4434 0.332031 12C0.332031 5.55672 5.55538 0.333374 11.9987 0.333374C18.442 0.333374 23.6654 5.55672 23.6654 12ZM19 8.55808V11.0018C17.7013 11.0438 16.4189 10.7157 15.3167 10.0596V13.9963C15.3402 14.1776 15.3523 14.3601 15.3528 14.5427C15.3528 15.4243 15.0785 16.2861 14.5647 17.019C14.0508 17.752 13.3205 18.3233 12.466 18.6607C11.6115 18.9981 10.6712 19.0863 9.76407 18.9144C8.85694 18.7424 8.02369 18.3179 7.36968 17.6945C6.71568 17.0711 6.2703 16.2769 6.08986 15.4123C5.90942 14.5477 6.00203 13.6514 6.35597 12.837C6.70992 12.0225 7.3093 11.3264 8.07833 10.8366C8.84736 10.3468 9.75149 10.0854 10.6764 10.0854C10.9335 10.0859 11.1901 10.106 11.4438 10.1457V12.512C11.0087 12.3642 10.5365 12.3472 10.0909 12.4633C9.64538 12.5795 9.24794 12.8231 8.95226 13.1613C8.65659 13.4995 8.4769 13.9161 8.43747 14.3547C8.39804 14.7934 8.50076 15.233 8.73177 15.6142C8.96277 15.9955 9.31094 16.3 9.72926 16.4866C10.1476 16.6733 10.6159 16.7331 11.0711 16.6581C11.5262 16.583 11.9462 16.3766 12.2744 16.0668C12.6025 15.757 12.8231 15.3587 12.9062 14.9256V5.23233V5L15.3302 5.05593V5.23233C15.3448 6.12316 15.6848 6.98127 16.2917 7.65888C16.883 8.25261 17.7993 8.55808 19 8.55808Z" fill="white"/>
</svg>
