<svg width="28" height="28" viewBox="0 0 28 28" fill="none" xmlns="http://www.w3.org/2000/svg">
<g opacity="0.5">
<path fill-rule="evenodd" clip-rule="evenodd" d="M25.6663 14C25.6663 20.4433 20.443 25.6666 13.9997 25.6666C7.55635 25.6666 2.33301 20.4433 2.33301 14C2.33301 7.55666 7.55635 2.33331 13.9997 2.33331C20.443 2.33331 25.6663 7.55666 25.6663 14ZM20.52 8.61927C20.8225 8.49288 21.0883 8.85908 20.8765 9.10862C20.5308 9.51371 20.1052 9.881 19.7628 10.0862C20.1528 10.0398 20.5308 9.95553 20.8938 9.83779C21.0612 9.78378 21.1974 9.98254 21.0839 10.1187C20.762 10.5065 20.3915 10.8532 19.9832 11.1481C19.9853 11.1957 19.9875 11.2886 19.9896 11.3879C19.9896 11.3977 19.991 11.4074 19.9923 11.4171C19.9937 11.4268 19.995 11.4366 19.995 11.4463C19.995 11.4528 19.9942 11.4592 19.9934 11.4657C19.9926 11.4722 19.9918 11.4787 19.9918 11.4852C19.994 11.617 19.995 11.7487 19.995 11.8114C19.995 15.7035 16.9153 19.8333 11.4978 19.8333C10.316 19.8333 9.25091 19.5578 8.18471 19.0717C7.80878 18.9 7.89844 18.3382 8.30893 18.2907C9.4702 18.1557 10.6358 17.8457 11.3433 17.2904C10.2987 17.272 9.21202 16.8356 8.63841 16.047C8.46989 15.8148 8.66325 15.4918 8.94844 15.5242C9.1256 15.5447 9.2898 15.5599 9.36866 15.5599C9.63764 15.5599 10.1886 15.5437 10.4619 15.3827C9.29304 15.1483 7.99674 14.3845 7.67483 13.2546C7.61217 13.0353 7.82498 12.8387 8.03779 12.9208C8.30785 13.0256 8.64057 13.125 8.88146 13.125C9.14396 13.125 9.39566 13.0828 9.62467 13.0234C8.38131 12.4012 7.58301 11.3987 7.58301 10.3768C7.58301 10.2537 7.58625 10.1295 7.59381 10.0063C7.61866 9.55476 8.1631 9.34087 8.48285 9.65847C9.74566 10.9126 11.3844 11.8114 13.4325 11.8114C13.4273 11.747 13.4293 11.6428 13.4311 11.5532C13.4318 11.5134 13.4325 11.4766 13.4325 11.4474C13.4325 9.63578 14.9017 8.16665 16.7133 8.16665C17.612 8.16665 18.4244 8.52961 19.0174 9.11402C19.0271 9.11132 19.0361 9.10835 19.045 9.10538C19.0539 9.10241 19.0628 9.09944 19.0725 9.09674C19.4636 9.01896 20.0156 8.82992 20.52 8.61927Z" fill="white"/>
</g>
</svg>
