<svg width="28" height="28" viewBox="0 0 28 28" fill="none" xmlns="http://www.w3.org/2000/svg">
<g opacity="0.5">
<path fill-rule="evenodd" clip-rule="evenodd" d="M6.22214 25.6668H21.7777C23.9257 25.6668 25.6666 23.9259 25.6666 21.7779V6.22238C25.6666 4.07442 23.9257 2.3335 21.7777 2.3335H6.22214C4.07418 2.3335 2.33325 4.07442 2.33325 6.22238V21.7779C2.33325 23.9259 4.07418 25.6668 6.22214 25.6668ZM19.7484 19.8241L22.2006 19.7902C22.2006 19.7902 23.4839 19.7096 22.8761 18.6977C22.8722 18.6912 22.8667 18.6812 22.8592 18.6676C22.7709 18.5067 22.4071 17.8438 21.0515 16.5833C20.4026 15.9803 20.0639 15.6724 20.0282 15.3327C19.9791 14.8667 20.4999 14.3406 21.5716 12.9101C22.7009 11.4048 23.1517 10.4848 23.0104 10.0904C22.8747 9.71308 22.0451 9.81343 22.0451 9.81343L19.282 9.83039C19.282 9.83039 19.0771 9.80212 18.9244 9.89399C18.776 9.98303 18.6799 10.1908 18.6799 10.1908C18.6799 10.1908 18.2432 11.3568 17.6595 12.349C16.4313 14.4407 15.9395 14.5509 15.7374 14.4209C15.3455 14.1687 15.3642 13.4871 15.3806 12.8902C15.3838 12.7746 15.3869 12.6622 15.3869 12.5567C15.3869 12.0894 15.4032 11.6848 15.4173 11.3363C15.4644 10.1723 15.4862 9.63292 14.789 9.46433C14.4894 9.39084 14.2675 9.3442 13.5 9.33572C12.5149 9.32582 11.6797 9.33996 11.2076 9.57033C10.8924 9.7258 10.6508 10.0692 10.7992 10.089C10.9815 10.1116 11.3956 10.2007 11.6161 10.5017C11.8987 10.8876 11.8888 11.7539 11.8888 11.7539C11.8888 11.7539 12.0514 14.1397 11.5086 14.4365C11.1369 14.64 10.6267 14.2245 9.52997 12.3263C8.96746 11.3526 8.54346 10.277 8.54346 10.277C8.54346 10.277 8.46007 10.0749 8.3145 9.96748C8.13642 9.83745 7.88909 9.79364 7.88909 9.79364L5.26451 9.80636C5.26451 9.80636 4.87161 9.8106 4.72603 9.98161C4.59742 10.1357 4.71755 10.4381 4.71755 10.4381C4.71755 10.4381 6.77255 15.2279 9.0989 17.6546C11.2345 19.8806 13.6569 19.6799 13.6569 19.6799H14.7551C14.7551 19.6799 15.0872 19.6983 15.2568 19.516C15.4137 19.3464 15.4081 19.0863 15.4081 19.0863C15.4081 19.0863 15.3869 17.6108 16.0709 17.3932C16.4784 17.2642 16.9556 17.8121 17.4719 18.405C17.8098 18.793 18.1645 19.2002 18.5273 19.4496C19.2198 19.9273 19.7484 19.8241 19.7484 19.8241Z" fill="#6801E6"/>
</g>
</svg>
