<svg width="28" height="28" viewBox="0 0 28 28" fill="none" xmlns="http://www.w3.org/2000/svg">
<g opacity="0.5">
<path fill-rule="evenodd" clip-rule="evenodd" d="M6.2219 25.6666H21.7775C23.9254 25.6666 25.6663 23.9257 25.6663 21.7778V6.2222C25.6663 4.07424 23.9254 2.33331 21.7775 2.33331H6.2219C4.07393 2.33331 2.33301 4.07424 2.33301 6.2222V21.7778C2.33301 23.9257 4.07393 25.6666 6.2219 25.6666ZM19.7482 19.8239L22.2003 19.79C22.2003 19.79 23.4836 19.7094 22.8759 18.6975C22.8719 18.691 22.8664 18.681 22.859 18.6674C22.7707 18.5066 22.4069 17.8436 21.0513 16.5831C20.4023 15.9801 20.0637 15.6723 20.0279 15.3325C19.9788 14.8665 20.4997 14.3404 21.5714 12.9099C22.7006 11.4047 23.1515 10.4846 23.0102 10.0903C22.8745 9.7129 22.0448 9.81324 22.0448 9.81324L19.2818 9.8302C19.2818 9.8302 19.0768 9.80194 18.9242 9.8938C18.7758 9.98284 18.6797 10.1906 18.6797 10.1906C18.6797 10.1906 18.243 11.3566 17.6593 12.3488C16.4311 14.4405 15.9392 14.5508 15.7371 14.4207C15.3452 14.1685 15.3639 13.4869 15.3803 12.8901C15.3835 12.7745 15.3866 12.662 15.3866 12.5565C15.3866 12.0892 15.403 11.6846 15.4171 11.3361C15.4641 10.1721 15.486 9.63274 14.7888 9.46415C14.4891 9.39066 14.2672 9.34401 13.4998 9.33553C12.5147 9.32564 11.6794 9.33977 11.2074 9.57015C10.8922 9.72562 10.6505 10.0691 10.7989 10.0888C10.9812 10.1115 11.3953 10.2005 11.6158 10.5015C11.8985 10.8874 11.8886 11.7538 11.8886 11.7538C11.8886 11.7538 12.0511 14.1395 11.5084 14.4363C11.1367 14.6398 10.6265 14.2243 9.52973 12.3262C8.96722 11.3524 8.54322 10.2768 8.54322 10.2768C8.54322 10.2768 8.45983 10.0747 8.31426 9.9673C8.13617 9.83727 7.88884 9.79346 7.88884 9.79346L5.26427 9.80618C5.26427 9.80618 4.87136 9.81042 4.72579 9.98143C4.59717 10.1355 4.71731 10.4379 4.71731 10.4379C4.71731 10.4379 6.7723 15.2277 9.09866 17.6544C11.2342 19.8805 13.6567 19.6798 13.6567 19.6798H14.7548C14.7548 19.6798 15.087 19.6981 15.2566 19.5158C15.4135 19.3462 15.4078 19.0862 15.4078 19.0862C15.4078 19.0862 15.3866 17.6106 16.0707 17.393C16.4782 17.264 16.9554 17.8119 17.4717 18.4048C17.8096 18.7928 18.1642 19.2001 18.527 19.4494C19.2196 19.9271 19.7482 19.8239 19.7482 19.8239Z" fill="white"/>
</g>
</svg>
