<svg width="28" height="28" viewBox="0 0 28 28" fill="none" xmlns="http://www.w3.org/2000/svg">
<g opacity="0.5">
<path fill-rule="evenodd" clip-rule="evenodd" d="M14.0003 3.5C17.6532 3.5 20.606 3.73333 22.7538 3.99117C25.0883 4.27117 26.8337 6.26967 26.8337 8.62167V19.3783C26.8337 21.7303 25.0883 23.7277 22.7538 24.0088C20.606 24.2667 17.6532 24.5 14.0003 24.5C10.3475 24.5 7.39466 24.2667 5.24683 24.01C2.91233 23.7288 1.16699 21.7303 1.16699 19.3795V8.62167C1.16699 6.26967 2.91233 4.27117 5.24683 3.99117C7.39466 3.73333 10.3475 3.5 14.0003 3.5ZM12.3136 9.52975L17.5629 13.0296C17.8879 13.2463 18.0828 13.6102 18.0828 14.0002C18.0828 14.3901 17.8879 14.7541 17.5629 14.9707L12.3136 18.4706C12.1186 18.6006 11.8933 18.6667 11.6669 18.6667C11.4785 18.6667 11.2889 18.6212 11.1167 18.5291C10.7375 18.3255 10.5003 17.9312 10.5003 17.5V10.5003C10.5003 10.0703 10.7375 9.6749 11.1167 9.47126C11.4936 9.26761 11.9551 9.29144 12.3136 9.52975Z" fill="white"/>
</g>
</svg>
