<svg width="28" height="28" viewBox="0 0 28 28" fill="none" xmlns="http://www.w3.org/2000/svg">
<g opacity="0.5">
<path fill-rule="evenodd" clip-rule="evenodd" d="M14.0001 3.5C17.6529 3.5 20.6057 3.73333 22.7536 3.99117C25.0881 4.27117 26.8334 6.26967 26.8334 8.62167V19.3783C26.8334 21.7303 25.0881 23.7277 22.7536 24.0088C20.6057 24.2667 17.6529 24.5 14.0001 24.5C10.3472 24.5 7.39441 24.2667 5.24658 24.01C2.91208 23.7288 1.16675 21.7303 1.16675 19.3795V8.62167C1.16675 6.26967 2.91208 4.27117 5.24658 3.99117C7.39441 3.73333 10.3472 3.5 14.0001 3.5ZM12.3134 9.52975L17.5626 13.0296C17.8876 13.2463 18.0826 13.6102 18.0826 14.0002C18.0826 14.3901 17.8876 14.7541 17.5626 14.9707L12.3134 18.4706C12.1184 18.6006 11.8931 18.6667 11.6667 18.6667C11.4782 18.6667 11.2887 18.6212 11.1164 18.5291C10.7373 18.3255 10.5001 17.9312 10.5001 17.5V10.5003C10.5001 10.0703 10.7373 9.6749 11.1164 9.47126C11.4934 9.26761 11.9548 9.29144 12.3134 9.52975Z" fill="#6801E6"/>
</g>
</svg>
