<svg width="24" height="24" viewBox="0 0 24 24" fill="none" xmlns="http://www.w3.org/2000/svg">
<path d="M3 4.00012V16.5679M19.2 22.0001V22.0001C20.1941 22.0001 21 21.1942 21 20.2001V4.99996M19.2 22.0001C18.5083 22.0001 19.7221 22.0001 19.2 22.0001Z" stroke="white" stroke-width="2"/>
<path d="M21.0002 20C21.0002 21.1046 20.1048 22 19.0002 22M19.0002 22C17.8956 22 17.0002 21.1046 17.0002 20V16.5H1L1.00018 20C1.00018 21.1046 1.89562 22 3.00019 22H19.0002Z" stroke="white" stroke-width="2"/>
<path d="M2.99981 4C2.99981 2.89543 3.89524 2 4.99981 2L20.9998 2C22.1044 2 22.9998 2.89543 22.9998 4L23 7.5L20 7.5" stroke="white" stroke-width="2"/>
</svg>
